<?xml version="1.0" encoding="utf-8"?>
<!-- Generator: Adobe Illustrator 16.0.0, SVG Export Plug-In . SVG Version: 6.00 Build 0)  -->
<!DOCTYPE svg PUBLIC "-//W3C//DTD SVG 1.1//EN" "http://www.w3.org/Graphics/SVG/1.1/DTD/svg11.dtd">
<svg version="1.1" id="Layer_1" xmlns="http://www.w3.org/2000/svg" xmlns:xlink="http://www.w3.org/1999/xlink" x="0px" y="0px"
	 width="136.913px" height="136.914px" viewBox="0 0 136.913 136.914" enable-background="new 0 0 136.913 136.914"
	 xml:space="preserve">
<g>
	<g>
		<g>
			<g>
				<circle fill="#F37C2A" cx="68.457" cy="68.457" r="63.333"/>
			</g>
		</g>
	</g>
	<g>
		<g id="_32237776_1_">
			<path fill="#DDDCD9" d="M33.62,38.699h67.729c2.275,0,4.137,1.861,4.137,4.137v53.597c0,2.273-1.863,4.135-4.137,4.135H33.62
				c-2.275,0-4.137-1.861-4.137-4.135V42.836C29.483,40.561,31.345,38.699,33.62,38.699L33.62,38.699z"/>
		</g>
		<g>
			<g>
				<path fill="#626463" d="M47.353,70.052c0,0.793-0.645,1.438-1.438,1.438H34.177c-0.793,0-1.438-0.645-1.438-1.438v-6.348
					c0-0.795,0.645-1.438,1.438-1.438h11.738c0.793,0,1.438,0.643,1.438,1.438V70.052z"/>
			</g>
			<g>
				<path fill="#626463" d="M65.735,70.052c0,0.793-0.643,1.438-1.438,1.438H52.562c-0.795,0-1.439-0.645-1.439-1.438v-6.348
					c0-0.795,0.645-1.438,1.439-1.438h11.736c0.795,0,1.438,0.643,1.438,1.438V70.052z"/>
			</g>
			<g>
				<path fill="#626463" d="M83.882,70.052c0,0.793-0.643,1.438-1.438,1.438H70.708c-0.795,0-1.438-0.645-1.438-1.438v-6.348
					c0-0.795,0.643-1.438,1.438-1.438h11.736c0.795,0,1.438,0.643,1.438,1.438V70.052z"/>
			</g>
			<g>
				<path fill="#626463" d="M102.265,70.052c0,0.793-0.643,1.438-1.438,1.438H89.091c-0.793,0-1.438-0.645-1.438-1.438v-6.348
					c0-0.795,0.645-1.438,1.438-1.438h11.736c0.795,0,1.438,0.643,1.438,1.438V70.052z"/>
			</g>
		</g>
		<g>
			<g>
				<path fill="#626463" d="M47.353,82.552c0,0.793-0.645,1.438-1.438,1.438H34.177c-0.793,0-1.438-0.645-1.438-1.438v-6.348
					c0-0.795,0.645-1.438,1.438-1.438h11.738c0.793,0,1.438,0.643,1.438,1.438V82.552z"/>
			</g>
			<g>
				<path fill="#626463" d="M65.735,82.552c0,0.793-0.643,1.438-1.438,1.438H52.562c-0.795,0-1.439-0.645-1.439-1.438v-6.348
					c0-0.795,0.645-1.438,1.439-1.438h11.736c0.795,0,1.438,0.643,1.438,1.438V82.552z"/>
			</g>
			<g>
				<path fill="#626463" d="M83.882,82.552c0,0.793-0.643,1.438-1.438,1.438H70.708c-0.795,0-1.438-0.645-1.438-1.438v-6.348
					c0-0.795,0.643-1.438,1.438-1.438h11.736c0.795,0,1.438,0.643,1.438,1.438V82.552z"/>
			</g>
			<g>
				<path fill="#626463" d="M102.265,82.552c0,0.793-0.643,1.438-1.438,1.438H89.091c-0.793,0-1.438-0.645-1.438-1.438v-6.348
					c0-0.795,0.645-1.438,1.438-1.438h11.736c0.795,0,1.438,0.643,1.438,1.438V82.552z"/>
			</g>
		</g>
		<g>
			<g>
				<path fill="#626463" d="M47.353,95.052c0,0.793-0.645,1.438-1.438,1.438H34.177c-0.793,0-1.438-0.645-1.438-1.438v-6.348
					c0-0.795,0.645-1.438,1.438-1.438h11.738c0.793,0,1.438,0.643,1.438,1.438V95.052z"/>
			</g>
			<g>
				<path fill="#626463" d="M65.735,95.052c0,0.793-0.643,1.438-1.438,1.438H52.562c-0.795,0-1.439-0.645-1.439-1.438v-6.348
					c0-0.795,0.645-1.438,1.439-1.438h11.736c0.795,0,1.438,0.643,1.438,1.438V95.052z"/>
			</g>
			<g>
				<path fill="#626463" d="M83.882,95.052c0,0.793-0.643,1.438-1.438,1.438H70.708c-0.795,0-1.438-0.645-1.438-1.438v-6.348
					c0-0.795,0.643-1.438,1.438-1.438h11.736c0.795,0,1.438,0.643,1.438,1.438V95.052z"/>
			</g>
			<g>
				<path fill="#626463" d="M102.265,95.052c0,0.793-0.643,1.438-1.438,1.438H89.091c-0.793,0-1.438-0.645-1.438-1.438v-6.348
					c0-0.795,0.645-1.438,1.438-1.438h11.736c0.795,0,1.438,0.643,1.438,1.438V95.052z"/>
			</g>
		</g>
		<g id="_32237800_1_">
			<path fill="#D32027" d="M33.62,38.699h67.729c2.275,0,4.137,1.861,4.137,4.137v14.302H29.483V42.836
				C29.483,40.561,31.345,38.699,33.62,38.699L33.62,38.699z"/>
		</g>
		<g id="_32237272_1_" opacity="0.15">
			<path d="M88.243,38.699v7.714c0,1.936-1.584,3.518-3.518,3.518h-3.021c-1.936,0-3.518-1.582-3.518-3.518v-7.714H88.243
				L88.243,38.699z M46.728,38.699h10.055v7.714c0,1.936-1.582,3.518-3.516,3.518h-3.023c-1.934,0-3.516-1.582-3.516-3.518V38.699
				L46.728,38.699z"/>
		</g>
		<g id="_32234584_1_">
			<path fill="#FFFFFF" d="M81.704,29.049h3.021c0.969,0,1.764,0.795,1.764,1.764v15.601c0,0.971-0.795,1.764-1.764,1.764h-3.021
				c-0.971,0-1.764-0.793-1.764-1.764V30.813C79.94,29.844,80.733,29.049,81.704,29.049z M50.243,29.049h3.023
				c0.969,0,1.762,0.795,1.762,1.764v15.601c0,0.971-0.793,1.764-1.762,1.764h-3.023c-0.969,0-1.764-0.793-1.764-1.764V30.813
				C48.479,29.844,49.274,29.049,50.243,29.049z"/>
		</g>
	</g>
</g>
</svg>
