<?xml version="1.0" encoding="utf-8"?>
<!-- Generator: Adobe Illustrator 15.1.0, SVG Export Plug-In . SVG Version: 6.00 Build 0)  -->
<!DOCTYPE svg PUBLIC "-//W3C//DTD SVG 1.1//EN" "http://www.w3.org/Graphics/SVG/1.1/DTD/svg11.dtd">
<svg version="1.1" id="Layer_1" xmlns="http://www.w3.org/2000/svg" xmlns:xlink="http://www.w3.org/1999/xlink" x="0px" y="0px"
	 width="136.914px" height="136.914px" viewBox="0 0 136.914 136.914" enable-background="new 0 0 136.914 136.914"
	 xml:space="preserve">
<g>
	<g>
		<circle fill="#FFC50B" cx="68.68" cy="67.708" r="63.333"/>
	</g>
	<path fill="#FBC096" d="M51.634,55.136c0,0,12.163,1.188,13.053-21.898c0,0,2.967-7.912,11.867,1.262
		c8.899,9.175-1.728,20.637-1.728,20.637l23.383,0.377c0,0,6.521,0.151,7.713,4.847c1.192,4.695-1.779,5.102-2.669,5.778
		c-0.891,0.676-9.942,0-9.942,0s13.798-2.56,9.645,10.924c0,0-5.339,2.84-11.272,2.229c0,0,10.18-3.099,10.68,2.683
		c0.499,5.779-3.597,6.629-13.813,7.897c0,0,11.74-2.55,9.363,5.061c-2.379,7.608-2.078,6.889-6.527,6.889s-41.829-4.83-41.829-4.83
		V55.136H51.634z"/>
	<path fill="#7BA4D6" d="M49.558,95.109c0,3.716-3.011,6.729-6.728,6.729h-1.636c-3.716,0-6.728-3.013-6.728-6.729V60.054
		c0-3.716,3.012-6.729,6.728-6.729h1.636c3.716,0,6.728,3.013,6.728,6.729V95.109z"/>
	<g id="like">
		<path fill="#666666" d="M100.821,53.021c-2.968-0.78-9.943-0.771-20.146-1.042c0.482-2.228,0.594-4.232,0.594-7.798
			c0-8.515-6.203-16.014-11.69-16.014c-3.875,0-7.07,3.167-7.12,7.063c-0.053,4.782-1.531,13.035-9.494,17.219
			c-0.584,0.31-2.255,1.135-2.5,1.24l0.126,0.106c-1.246-1.073-2.974-1.898-4.747-1.898h-7.12c-3.925,0-7.12,3.193-7.12,7.12v37.971
			c0,3.927,3.195,7.12,7.12,7.12h7.12c2.825,0,5.188-1.705,6.333-4.098c0.029,0.01,0.078,0.023,0.112,0.029
			c0.156,0.042,0.341,0.088,0.566,0.148c0.043,0.01,0.064,0.014,0.109,0.028c1.367,0.338,3.999,0.968,9.624,2.262
			c1.206,0.274,7.576,1.63,14.174,1.63h12.974c3.954,0,6.805-1.52,8.501-4.573c0.022-0.051,0.571-1.113,1.016-2.554
			c0.333-1.085,0.459-2.62,0.055-4.177c2.551-1.752,3.371-4.402,3.903-6.124c0.895-2.826,0.626-4.949,0.006-6.474
			c1.432-1.351,2.655-3.414,3.17-6.563c0.319-1.951-0.022-3.96-0.923-5.629c1.345-1.51,1.956-3.408,2.026-5.166l0.027-0.496
			c0.019-0.311,0.032-0.504,0.032-1.186C107.55,58.17,105.474,54.348,100.821,53.021z M48.219,96.989
			c0,1.313-1.061,2.375-2.374,2.375h-7.12c-1.313,0-2.374-1.062-2.374-2.375V59.018c0-1.311,1.061-2.372,2.374-2.372h7.12
			c1.313,0,2.374,1.062,2.374,2.372V96.989z M102.749,62.663c-0.046,1.171-0.538,3.475-4.692,3.475c-3.56,0-4.745,0-4.745,0
			c-0.658,0-1.187,0.535-1.187,1.188c0,0.654,0.528,1.186,1.187,1.186c0,0,1.038,0,4.598,0c3.561,0,4.028,2.952,3.799,4.376
			c-0.295,1.77-1.124,5.118-5.134,5.118c-4.005,0-5.637,0-5.637,0c-0.658,0-1.186,0.526-1.186,1.185
			c0,0.653,0.527,1.187,1.186,1.187c0,0,2.818,0,4.674,0c4.006,0,3.653,3.057,3.077,4.878c-0.756,2.396-1.22,4.615-6.268,4.615
			c-1.706,0-3.87,0-3.87,0c-0.658,0-1.186,0.53-1.186,1.187c0,0.653,0.527,1.188,1.186,1.188c0,0,1.645,0,3.723,0
			c2.596,0,2.717,2.457,2.445,3.338c-0.298,0.963-0.646,1.678-0.661,1.708c-0.719,1.294-1.873,2.073-4.32,2.073H76.763
			c-6.518,0-12.983-1.479-13.15-1.517c-9.857-2.271-10.376-2.446-10.997-2.622c0,0-2.009-0.339-2.009-2.091l-0.016-32.782
			c0-1.112,0.709-2.118,1.884-2.471c0.147-0.057,0.347-0.12,0.489-0.177c10.841-4.491,14.142-14.334,14.239-22.418
			c0.014-1.137,0.89-2.374,2.374-2.374c2.507,0,6.943,5.036,6.943,11.268c0,5.627-0.228,6.601-2.197,12.465
			c23.731,0,23.566,0.341,25.661,0.89c2.596,0.742,2.818,2.893,2.818,3.634C102.804,61.984,102.781,61.865,102.749,62.663z"/>
		<path fill="#666666" d="M42.286,89.87c-1.965,0-3.56,1.595-3.56,3.56c0,1.967,1.595,3.56,3.56,3.56s3.56-1.593,3.56-3.56
			C45.845,91.465,44.251,89.87,42.286,89.87z M42.286,94.617c-0.652,0-1.187-0.533-1.187-1.188c0-0.652,0.534-1.185,1.187-1.185
			s1.187,0.532,1.187,1.185C43.472,94.084,42.938,94.617,42.286,94.617z"/>
	</g>
</g>
</svg>
