<?xml version="1.0" encoding="utf-8"?>
<!-- Generator: Adobe Illustrator 18.1.0, SVG Export Plug-In . SVG Version: 6.00 Build 0)  -->
<svg version="1.1" id="圖層_1" xmlns="http://www.w3.org/2000/svg" xmlns:xlink="http://www.w3.org/1999/xlink" x="0px" y="0px"
	 viewBox="0 0 560 560" enable-background="new 0 0 560 560" xml:space="preserve">
<g>
	<ellipse fill="#E09F37" cx="279" cy="280.3" rx="279.1" ry="280.1"/>
</g>
<g>
	<polygon fill="#6F6D6A" points="293.1,334.2 322.2,380.4 307.6,432.2 274.5,415.7 293.1,383.2 266.1,342.1 	"/>
	<polygon fill="#6F6D6A" points="241.4,342.1 251.5,383.2 234.7,426.6 270.6,415.7 274.5,383.2 266.1,342.1 	"/>
	<polygon fill="#395FA1" points="281.8,230.8 241.4,230.8 241.4,149.7 322.2,149.7 	"/>
	<polygon fill="#E2B665" points="322.2,149.7 322.2,230.8 281.8,230.8 	"/>
	<rect x="223.5" y="230.8" fill="#C74B2A" width="94.3" height="111.3"/>
	<path fill="#A13824" d="M274.5,258.8c0,0,47.5,27,93.7,0v27c0,0-53.5,27-93.7,0V258.8z"/>
	<rect x="368.2" y="243" fill="#E2B665" width="15.7" height="43.5"/>
</g>
<g>
	<polygon fill="#756936" points="437.8,339.4 467,385.5 452.4,437.4 419.3,420.8 437.8,388.4 410.9,347.3 	"/>
	<polygon fill="#756936" points="386.2,347.3 396.3,388.4 379.5,431.7 415.4,420.8 419.3,388.4 410.9,347.3 	"/>
	<polygon fill="#060001" points="426.6,235.9 386.2,235.9 386.2,154.9 467,154.9 	"/>
	<polygon fill="#E2B665" points="467,154.9 467,235.9 426.6,235.9 	"/>
	<rect x="368.2" y="235.9" fill="#B26965" width="94.3" height="111.3"/>
	<path fill="#AE2223" d="M414.8,278.4c0,0,54.5-2.6,79.2-50.3l14.4,22.8c0,0-30.8,51.6-79.2,50.3L414.8,278.4z"/>
	<polygon fill="#E2B665" points="522,243 508.7,251.4 485.5,214.7 498.8,206.3 	"/>
</g>
<g>
	<polygon fill="#7A84AA" points="144.4,330.6 173.6,376.8 159,428.6 125.9,412.1 144.4,379.6 117.4,338.5 	"/>
	<polygon fill="#7A84AA" points="92.8,338.5 102.9,379.6 86,423 121.9,412.1 125.9,379.6 117.4,338.5 	"/>
	<polygon fill="#9F822D" points="133.2,227.2 92.8,227.2 92.8,146.1 173.6,146.1 	"/>
	<polygon fill="#E2B665" points="173.6,146.1 173.6,227.2 133.2,227.2 	"/>
	<rect x="74.8" y="227.2" fill="#D47799" width="94.3" height="111.3"/>
	<path fill="#C2A097" d="M125.9,255.2c0,0,47.5,27,93.7,0v27c0,0-53.5,27-93.7,0V255.2z"/>
	<rect x="219.6" y="239.4" fill="#E2B665" width="15.7" height="43.5"/>
	<polygon fill="#9F822D" points="92.8,226.3 92.8,266.4 117.4,261.1 136.6,220.3 	"/>
</g>
</svg>
