<?xml version="1.0" encoding="utf-8"?>
<!-- Generator: Adobe Illustrator 16.0.0, SVG Export Plug-In . SVG Version: 6.00 Build 0)  -->
<!DOCTYPE svg PUBLIC "-//W3C//DTD SVG 1.1//EN" "http://www.w3.org/Graphics/SVG/1.1/DTD/svg11.dtd">
<svg version="1.1" id="Layer_1" xmlns="http://www.w3.org/2000/svg" xmlns:xlink="http://www.w3.org/1999/xlink" x="0px" y="0px"
	 width="136.913px" height="136.914px" viewBox="0 0 136.913 136.914" enable-background="new 0 0 136.913 136.914"
	 xml:space="preserve">
<g>
	<g>
		<circle fill="#4ABC96" cx="68.457" cy="68.457" r="63.333"/>
	</g>
	<g>
		<g>
			<path fill="#357180" d="M18.241,38.828v-5.014h-2.793c-1.008,1.539-1.957,3.119-2.83,4.748L18.241,38.828z"/>
		</g>
		<g>
			<polygon fill="#357180" points="49.931,37.705 49.931,33.814 26.438,33.814 26.438,38.82 			"/>
		</g>
		<g>
			<path fill="#357180" d="M94.712,33.814H67.235v3.07l21.291-1.01v3.145h2.736v88.521c1.871-0.723,3.697-1.529,5.477-2.418V35.84
				C96.739,34.725,95.833,33.814,94.712,33.814z"/>
		</g>
		<g>
			<polygon fill="#27636D" points="22.247,39.02 26.438,38.82 26.438,33.814 18.241,33.814 18.241,38.828 			"/>
		</g>
		<g>
			<path fill="#D7D7BF" d="M91.263,127.541V39.02h-2.736v89.506C89.448,128.217,90.36,127.891,91.263,127.541z"/>
		</g>
		<g>
			<path fill="#E7E7D6" d="M18.241,39.02v-0.191l-5.623-0.266c-0.082,0.15-0.156,0.305-0.234,0.457H18.241z"/>
		</g>
		<g>
			<polygon fill="#E7E7D6" points="18.388,39.02 22.247,39.02 18.241,38.828 18.241,39.02 			"/>
		</g>
		<g>
			<path fill="#E7E7D6" d="M12.384,39.02c-1.865,3.543-3.404,7.279-4.576,11.18l7.063,0.225c1.193,0.039,2.162,1.076,2.162,2.318
				s-0.969,2.217-2.162,2.178l-8.221-0.262c-0.344,1.541-0.635,3.102-0.863,4.684l9.084,0.291c1.193,0.039,2.162,1.074,2.162,2.316
				s-0.969,2.219-2.162,2.18l-9.559-0.305c-0.107,1.469-0.178,2.949-0.184,4.445l9.742,0.313c1.193,0.037,2.162,1.074,2.162,2.316
				s-0.969,2.219-2.162,2.18l-9.584-0.307c0.107,1.592,0.268,3.17,0.49,4.727l9.094,0.291c1.193,0.039,2.162,1.074,2.162,2.314
				c0,1.244-0.969,2.221-2.162,2.182l-8.275-0.264c0.361,1.65,0.779,3.281,1.266,4.881l7.01,0.225
				c1.193,0.039,2.162,1.074,2.162,2.316c0,1.24-0.969,2.217-2.162,2.178l-5.424-0.174c0.633,1.625,1.32,3.223,2.082,4.777
				l3.342,0.107c1.193,0.039,2.162,1.078,2.162,2.316c0,1.242-0.969,2.217-2.162,2.178l-0.863-0.027
				c1.289,2.166,2.705,4.244,4.234,6.232V39.02H12.384z"/>
		</g>
		<g>
			<path fill="#E7E7D6" d="M18.388,39.02h-0.146v68.012c0.049,0.063,0.098,0.125,0.146,0.188V39.02z"/>
		</g>
		<g>
			<path fill="#E7E7D6" d="M18.388,107.219c1.111,1.434,2.277,2.822,3.506,4.154V41.279h0.354v-2.26h-3.859V107.219z"/>
		</g>
		<g>
			<polygon fill="#E7E7D6" points="49.931,39.02 49.931,37.705 26.438,38.82 26.438,39.02 			"/>
		</g>
		<g>
			<polygon fill="#E7E7D6" points="88.526,39.02 88.526,35.875 67.235,36.885 67.235,39.02 			"/>
		</g>
		<g>
			<polygon fill="#E7E7D6" points="26.438,39.02 26.438,38.82 22.247,39.02 26.288,39.02 			"/>
		</g>
		<g>
			<polygon fill="#E7E7D6" points="62.565,95.291 60.278,90.652 57.968,90.727 55.22,95.525 			"/>
		</g>
		<g>
			<polygon fill="#E7E7D6" points="50.001,104.643 66.907,104.104 64.745,99.717 52.601,100.104 			"/>
		</g>
		<g>
			<path fill="#E7E7D6" d="M67.235,49.234l13.924-0.445c1.193-0.039,2.16,0.936,2.16,2.18c0,1.242-0.967,2.277-2.16,2.318
				L67.235,53.73v4.713l13.924-0.445c1.193-0.039,2.16,0.936,2.16,2.178s-0.967,2.279-2.16,2.318l-13.924,0.445v4.451l13.924-0.443
				c1.193-0.041,2.16,0.936,2.16,2.178s-0.967,2.277-2.16,2.316l-13.924,0.445V76.6l13.924-0.445c1.193-0.039,2.16,0.934,2.16,2.176
				s-0.967,2.281-2.16,2.32l-13.924,0.445v4.842l13.924-0.445c1.193-0.039,2.16,0.936,2.16,2.178c0,1.238-0.967,2.277-2.16,2.316
				L67.235,90.43v4.713l13.924-0.445c1.193-0.039,2.16,0.938,2.16,2.178c0,1.242-0.967,2.277-2.16,2.316l-13.924,0.445v4.455
				l13.924-0.443c1.193-0.041,2.16,0.936,2.16,2.176s-0.967,2.279-2.16,2.318l-51.17,1.635c-1.193,0.039-2.158-0.938-2.158-2.18
				c0-1.24,0.965-2.277,2.158-2.314l19.941-0.639v-4.455l-19.941,0.637c-1.193,0.039-2.158-0.936-2.158-2.178
				c0-1.238,0.965-2.277,2.158-2.316l19.941-0.637v-4.713l-19.941,0.639c-1.193,0.039-2.158-0.938-2.158-2.178
				c0-1.242,0.965-2.277,2.158-2.316l19.941-0.637v-4.842l-19.941,0.637c-1.193,0.039-2.158-0.938-2.158-2.182
				c0-1.24,0.965-2.275,2.158-2.314l19.941-0.637v-4.713l-19.941,0.639c-1.193,0.039-2.158-0.938-2.158-2.18
				s0.965-2.279,2.158-2.316l19.941-0.639v-4.451l-19.941,0.637c-1.193,0.039-2.158-0.938-2.158-2.18s0.965-2.277,2.158-2.316
				l19.941-0.637v-4.713L29.989,54.92c-1.193,0.039-2.158-0.936-2.158-2.178s0.965-2.279,2.158-2.318l19.941-0.637V39.02H26.438
				v76.809c0.467,0.414,0.938,0.826,1.416,1.227c-0.008-0.084-0.023-0.164-0.023-0.25c0-1.238,0.965-2.277,2.158-2.316l51.17-1.635
				c1.193-0.039,2.16,0.938,2.16,2.176c0,1.244-0.967,2.279-2.16,2.318l-50.895,1.627c10.619,8.039,23.846,12.816,38.191,12.816
				c7.018,0,13.762-1.158,20.07-3.266V39.02H67.235V49.234z"/>
		</g>
		<g>
			<path fill="#E7E7D6" d="M26.288,115.697c0.049,0.045,0.102,0.086,0.15,0.131V39.02h-0.15V115.697z"/>
		</g>
		<g>
			<path fill="#E7E7D6" d="M22.782,41.279v71.025c1.127,1.174,2.293,2.309,3.506,3.393V39.02h-4.041v2.26H22.782z"/>
		</g>
		<g>
			<path fill="#DCDDD8" d="M22.247,41.279h-0.354v70.094c0.115,0.127,0.236,0.246,0.354,0.371V41.279z"/>
		</g>
		<g>
			<path fill="#DCDDD8" d="M22.782,112.305V41.279h-0.535v70.465C22.425,111.934,22.603,112.119,22.782,112.305z"/>
		</g>
		<g>
			<path fill="#B9B9BA" d="M17.032,52.742c0-1.242-0.969-2.279-2.162-2.318l-7.063-0.225c-0.439,1.463-0.824,2.951-1.158,4.459
				l8.221,0.262C16.063,54.959,17.032,53.984,17.032,52.742z"/>
		</g>
		<g>
			<path fill="#B9B9BA" d="M17.032,61.949c0-1.242-0.969-2.277-2.162-2.316l-9.084-0.291c-0.213,1.479-0.367,2.975-0.475,4.482
				l9.559,0.305C16.063,64.168,17.032,63.191,17.032,61.949z"/>
		</g>
		<g>
			<path fill="#B9B9BA" d="M17.032,70.898c0-1.242-0.969-2.279-2.162-2.316L5.128,68.27c0,0.064-0.004,0.125-0.004,0.188
				c0,1.453,0.066,2.887,0.162,4.314l9.584,0.307C16.063,73.117,17.032,72.141,17.032,70.898z"/>
		</g>
		<g>
			<path fill="#B9B9BA" d="M17.032,80.104c0-1.24-0.969-2.275-2.162-2.314l-9.094-0.291c0.219,1.527,0.494,3.033,0.818,4.523
				l8.275,0.264C16.063,82.324,17.032,81.348,17.032,80.104z"/>
		</g>
		<g>
			<path fill="#B9B9BA" d="M17.032,89.443c0-1.242-0.969-2.277-2.162-2.316l-7.01-0.225c0.469,1.543,1.004,3.055,1.586,4.545
				l5.424,0.174C16.063,91.66,17.032,90.684,17.032,89.443z"/>
		</g>
		<g>
			<path fill="#B9B9BA" d="M17.032,98.648c0-1.238-0.969-2.277-2.162-2.316l-3.342-0.107c0.764,1.564,1.592,3.088,2.479,4.574
				l0.863,0.027C16.063,100.865,17.032,99.891,17.032,98.648z"/>
		</g>
		<g>
			<path fill="#B9B9BA" d="M29.989,50.424c-1.193,0.039-2.158,1.076-2.158,2.318s0.965,2.217,2.158,2.178l19.941-0.637v-4.496
				L29.989,50.424z"/>
		</g>
		<g>
			<path fill="#B9B9BA" d="M81.159,53.287c1.193-0.041,2.16-1.076,2.16-2.318c0-1.244-0.967-2.219-2.16-2.18l-13.924,0.445v4.496
				L81.159,53.287z"/>
		</g>
		<g>
			<path fill="#B9B9BA" d="M81.159,62.494c1.193-0.039,2.16-1.076,2.16-2.318s-0.967-2.217-2.16-2.178l-13.924,0.445v4.496
				L81.159,62.494z"/>
		</g>
		<g>
			<path fill="#B9B9BA" d="M29.989,59.633c-1.193,0.039-2.158,1.074-2.158,2.316s0.965,2.219,2.158,2.18l19.941-0.637v-4.496
				L29.989,59.633z"/>
		</g>
		<g>
			<path fill="#B9B9BA" d="M29.989,68.582c-1.193,0.037-2.158,1.074-2.158,2.316s0.965,2.219,2.158,2.18l19.941-0.639v-4.496
				L29.989,68.582z"/>
		</g>
		<g>
			<path fill="#B9B9BA" d="M81.159,71.441c1.193-0.039,2.16-1.074,2.16-2.316s-0.967-2.219-2.16-2.178l-13.924,0.443v4.496
				L81.159,71.441z"/>
		</g>
		<g>
			<path fill="#B9B9BA" d="M81.159,80.65c1.193-0.039,2.16-1.078,2.16-2.32s-0.967-2.215-2.16-2.176L67.235,76.6v4.496L81.159,80.65
				z"/>
		</g>
		<g>
			<path fill="#B9B9BA" d="M29.989,77.789c-1.193,0.039-2.158,1.074-2.158,2.314c0,1.244,0.965,2.221,2.158,2.182l19.941-0.637
				v-4.496L29.989,77.789z"/>
		</g>
		<g>
			<path fill="#B9B9BA" d="M81.159,89.986c1.193-0.039,2.16-1.078,2.16-2.316c0-1.242-0.967-2.217-2.16-2.178l-13.924,0.445v4.492
				L81.159,89.986z"/>
		</g>
		<g>
			<path fill="#B9B9BA" d="M29.989,87.127c-1.193,0.039-2.158,1.074-2.158,2.316c0,1.24,0.965,2.217,2.158,2.178l19.941-0.639V86.49
				L29.989,87.127z"/>
		</g>
		<g>
			<polygon fill="#B9B9BA" points="59.229,88.523 57.968,90.727 60.278,90.652 			"/>
		</g>
		<g>
			<path fill="#B9B9BA" d="M81.159,99.191c1.193-0.039,2.16-1.074,2.16-2.316c0-1.24-0.967-2.217-2.16-2.178l-13.924,0.445v4.494
				L81.159,99.191z"/>
		</g>
		<g>
			<path fill="#B9B9BA" d="M29.989,96.332c-1.193,0.039-2.158,1.078-2.158,2.316c0,1.242,0.965,2.217,2.158,2.178l19.941-0.637
				v-4.494L29.989,96.332z"/>
		</g>
		<g>
			<polygon fill="#B9B9BA" points="52.601,100.104 64.745,99.717 62.565,95.291 55.22,95.525 			"/>
		</g>
		<g>
			<path fill="#B9B9BA" d="M66.907,104.104l-16.906,0.539l-0.07,0.125v-0.123l-19.941,0.639c-1.193,0.037-2.158,1.074-2.158,2.314
				c0,1.242,0.965,2.219,2.158,2.18l51.17-1.635c1.193-0.039,2.16-1.078,2.16-2.318s-0.967-2.217-2.16-2.176l-13.924,0.443v0.676
				L66.907,104.104z"/>
		</g>
		<g>
			<path fill="#B9B9BA" d="M29.989,118.982l0.275-0.008c-0.818-0.621-1.621-1.262-2.41-1.92
				C27.976,118.174,28.88,119.02,29.989,118.982z"/>
		</g>
		<g>
			<path fill="#B9B9BA" d="M81.159,117.348c1.193-0.039,2.16-1.074,2.16-2.318c0-1.238-0.967-2.215-2.16-2.176l-51.17,1.635
				c-1.193,0.039-2.158,1.078-2.158,2.316c0,0.086,0.016,0.166,0.023,0.25c0.789,0.658,1.592,1.299,2.41,1.92L81.159,117.348z"/>
		</g>
		<g>
			<rect x="49.931" y="33.775" fill="#BB5538" width="17.305" height="0.039"/>
		</g>
		<g>
			<polygon fill="#BB5538" points="67.235,36.885 67.235,33.814 49.931,33.814 49.931,37.705 			"/>
		</g>
		<g>
			<polygon fill="#BB5538" points="49.931,39.02 67.235,39.02 67.235,36.885 49.931,37.705 			"/>
		</g>
		<g>
			<polygon fill="#BB5538" points="57.968,90.727 49.931,90.982 49.931,95.695 55.22,95.525 			"/>
		</g>
		<g>
			<polygon fill="#BB5538" points="67.235,49.234 67.235,39.02 49.931,39.02 49.931,49.787 			"/>
		</g>
		<g>
			<polygon fill="#BB5538" points="49.931,67.943 67.235,67.391 67.235,62.939 49.931,63.492 			"/>
		</g>
		<g>
			<polygon fill="#BB5538" points="49.931,77.152 67.235,76.6 67.235,71.887 49.931,72.439 			"/>
		</g>
		<g>
			<polygon fill="#BB5538" points="49.931,58.996 67.235,58.443 67.235,53.73 49.931,54.283 			"/>
		</g>
		<g>
			<polygon fill="#BB5538" points="62.565,95.291 67.235,95.143 67.235,90.43 60.278,90.652 			"/>
		</g>
		<g>
			<polygon fill="#BB5538" points="52.601,100.104 49.931,100.189 49.931,104.645 50.001,104.643 			"/>
		</g>
		<g>
			<polygon fill="#BB5538" points="49.931,86.49 67.235,85.938 67.235,81.096 49.931,81.648 			"/>
		</g>
		<g>
			<polygon fill="#BB5538" points="66.907,104.104 67.235,104.092 67.235,99.637 64.745,99.717 			"/>
		</g>
		<g>
			<polygon fill="#BB5538" points="49.931,54.283 67.235,53.73 67.235,49.234 49.931,49.787 			"/>
		</g>
		<g>
			<polygon fill="#BB5538" points="49.931,63.492 67.235,62.939 67.235,58.443 49.931,58.996 			"/>
		</g>
		<g>
			<polygon fill="#BB5538" points="49.931,72.439 67.235,71.887 67.235,67.391 49.931,67.943 			"/>
		</g>
		<g>
			<polygon fill="#BB5538" points="49.931,81.648 67.235,81.096 67.235,76.6 49.931,77.152 			"/>
		</g>
		<g>
			<polygon fill="#BB5538" points="49.931,90.982 57.968,90.727 59.229,88.523 60.278,90.652 67.235,90.43 67.235,85.938 
				49.931,86.49 			"/>
		</g>
		<g>
			<polygon fill="#BB5538" points="64.745,99.717 67.235,99.637 67.235,95.143 62.565,95.291 			"/>
		</g>
		<g>
			<polygon fill="#BB5538" points="55.22,95.525 49.931,95.695 49.931,100.189 52.601,100.104 			"/>
		</g>
		<g>
			<polygon fill="#BB5538" points="50.001,104.643 49.931,104.645 49.931,104.768 			"/>
		</g>
		<g>
			<polygon fill="#BB5538" points="67.235,104.768 67.235,104.092 66.907,104.104 			"/>
		</g>
	</g>
</g>
</svg>
