<?xml version="1.0" encoding="utf-8"?>
<!-- Generator: Adobe Illustrator 18.0.0, SVG Export Plug-In . SVG Version: 6.00 Build 0)  -->
<!DOCTYPE svg PUBLIC "-//W3C//DTD SVG 1.1//EN" "http://www.w3.org/Graphics/SVG/1.1/DTD/svg11.dtd">
<svg version="1.1" id="Layer_1" xmlns="http://www.w3.org/2000/svg" xmlns:xlink="http://www.w3.org/1999/xlink" x="0px" y="0px"
	 viewBox="0 0 136.6 135.7" enable-background="new 0 0 136.6 135.7" xml:space="preserve">
<g>
	<circle fill="#EAA533" cx="68.2" cy="67.8" r="63.3"/>
</g>
<g>
	<path fill="#333333" d="M71.2,35.7h-3.9c-22.9,0-40,8.9-41.4,31.1c0,11.1,4.5,18.3,11.9,22.8c-0.4,1.2-1,2.6-1.8,4.3
		c-2,4.4-5.3,8.2-4.5,8.8c0.8,0.6,5.8-1.1,10.5-3.7c4.7-2.6,6.9-4.2,7.5-4.7c0.1,0,0.1-0.1,0.2-0.1c5.4,1.2,11.4,1.7,17.7,1.7h3.9
		c22.9,0,41.4-5.3,41.4-29C110.5,43.1,94,35.7,71.2,35.7z"/>
	<g>
		<g>
			<path fill="#FFFFFF" d="M81.5,56.3L81.5,56.3c-0.7-0.2-3.2-0.6-3.8,0.7l-3.4,9l-1.9,5l0,0l-0.1,0.1c-0.1,0-0.1,0-0.1-0.1l0,0
				l-1.8-5l-3.2-8.8c-0.7-1.5-3.2-1.1-3.8-1l0,0l-0.1,0.1l0,0l0,0l3.6,9.6l3.4,9.2c0.1,0.3,0.3,0.6,0.7,0.9c0.3,0.3,0.8,0.5,1.3,0.5
				s0.9-0.2,1.2-0.5c0.3-0.3,0.5-0.6,0.7-0.9c0,0,1.8-4.5,3.6-9.1c1.7-4.3,3.5-8.8,3.8-9.6l0,0l0,0C81.6,56.3,81.6,56.3,81.5,56.3z"
				/>
			<path fill="#FFFFFF" d="M52.6,73.1h-8.5c-0.1,0-0.1,0-0.1-0.1v-7v-8c0-1.4-2.5-1.8-3.2-1.9l0,0c-0.1,0-0.1,0.1-0.1,0.1v9.8v8.1
				c0,1.6,0.8,2.3,2.3,2.3h11.3l0,0c0.1,0,0.1-0.1,0.1-0.1l0,0C54.3,75.6,54,73.1,52.6,73.1z"/>
			<path fill="#FFFFFF" d="M57.3,56.1C57.3,56.1,57.2,56.1,57.3,56.1C57.2,56.1,57.2,56.1,57.3,56.1l-0.1,18.5
				c0,1.4,2.5,1.8,3.2,1.9l0,0c0.1,0,0.1-0.1,0.1-0.1V58C60.5,56.6,58,56.1,57.3,56.1z"/>
			<g>
				<path fill="#FFFFFF" d="M95.8,73.1h-8l0,0c-0.1,0-0.1,0-0.1-0.1c0-0.1,0-13.4,0-13.4l0,0c0-0.1,0-0.1,0.1-0.1l0,0h9.8l0,0
					c0.1,0,0.1-0.1,0.1-0.1l0,0c-0.1-0.8-0.4-3.2-1.9-3.2h-9.2c-1.5,0-2.3,0.8-2.3,2.3v7.6v8c0,1.6,0.8,2.4,2.3,2.4h10.7
					c0.1,0,0.1,0,0.2,0l0,0c0.1,0,0.1-0.1,0.1-0.1l0,0C97.7,75.5,97.4,73.1,95.8,73.1z"/>
				<path fill="#FFFFFF" d="M97.3,65.1l-4.2-2.7c-0.8-0.5-2.1,0.1-2.1,1.1v5.3c0,0.9,1.2,1.6,2.1,1l4.2-2.7
					C98,66.4,98,65.6,97.3,65.1z"/>
			</g>
		</g>
	</g>
</g>
</svg>
