<?xml version="1.0" encoding="utf-8"?>
<!-- Generator: Adobe Illustrator 15.1.0, SVG Export Plug-In . SVG Version: 6.00 Build 0)  -->
<!DOCTYPE svg PUBLIC "-//W3C//DTD SVG 1.1//EN" "http://www.w3.org/Graphics/SVG/1.1/DTD/svg11.dtd">
<svg version="1.1" id="Layer_1" xmlns="http://www.w3.org/2000/svg" xmlns:xlink="http://www.w3.org/1999/xlink" x="0px" y="0px"
	 width="136.602px" height="135.696px" viewBox="0 0 136.602 135.696" enable-background="new 0 0 136.602 135.696"
	 xml:space="preserve">
<g>
	<g>
		<circle fill="#E5AA17" cx="68.212" cy="67.805" r="63.333"/>
	</g>
	<g>
		<ellipse fill="#A47E46" cx="68.145" cy="51.559" rx="19.258" ry="19.498"/>
		<path fill="#36160D" d="M49.107,41.546c0,0,0.195,11.807,4.41,8.768c1.862-1.344,2.939-8.049,6.073-9.111
			c3.621-1.229,14.377,9.548,18.375,8.584c8.426-2.03,11.177-9.926,11.541-11.604l-6.665-0.684c0,0,6.608-1.863,6.694-4.873
			C89.535,32.626,49.538,14.185,49.107,41.546z"/>
		<path fill="#6EBD44" d="M89.535,114.978c0,3.126-2.533,5.659-5.66,5.659H52.549c-3.125,0-5.659-2.533-5.659-5.659V78.854
			c0-3.125,2.533-5.659,5.659-5.659h31.326c3.127,0,5.66,2.534,5.66,5.659V114.978z"/>
		<path fill="#A47E46" d="M74.383,78.644c0,2.662-2.475,4.82-5.527,4.82l0,0c-3.052,0-5.527-2.158-5.527-4.82v-9.255
			c0-2.662,2.475-4.82,5.527-4.82l0,0c3.053,0,5.527,2.158,5.527,4.82V78.644z"/>
	</g>
	<path fill="#A47E46" d="M68.145,130.442c17.81,0,33.854-7.525,45.156-19.555v-0.957c0-3.132-2.538-5.67-5.67-5.67H30.079
		c-3.131,0-5.669,2.538-5.669,5.67v2.439C35.617,123.538,51.074,130.442,68.145,130.442z"/>
</g>
</svg>
