<?xml version="1.0" encoding="utf-8"?>
<!-- Generator: Adobe Illustrator 15.1.0, SVG Export Plug-In . SVG Version: 6.00 Build 0)  -->
<!DOCTYPE svg PUBLIC "-//W3C//DTD SVG 1.1//EN" "http://www.w3.org/Graphics/SVG/1.1/DTD/svg11.dtd">
<svg version="1.1" id="Layer_1" xmlns="http://www.w3.org/2000/svg" xmlns:xlink="http://www.w3.org/1999/xlink" x="0px" y="0px"
	 width="136.602px" height="135.696px" viewBox="0 0 136.602 135.696" enable-background="new 0 0 136.602 135.696"
	 xml:space="preserve">
<g>
	<circle fill="#5EBC8B" cx="68.212" cy="67.805" r="63.333"/>
</g>
<g>
	<path fill="#F2F2F2" d="M88.886,99.366l-20.673,10.398L47.54,99.366l-20.673,10.398V37.473L47.54,27.074l20.673,10.399
		l20.673-10.399l20.672,10.399v72.291L88.886,99.366z"/>
	<path fill="none" stroke="#6BC9F2" stroke-width="4" stroke-miterlimit="10" d="M39.271,76.688V53.535l8.26-4.14l20.683,11.582
		l20.673-9.923l9.922,3.308"/>
	<path fill="none" stroke="#E64C3C" stroke-width="4" stroke-miterlimit="10" d="M39.271,77.515V70.9l8.27-4.135l20.673,10.75
		l20.673-9.096l9.922-4.136V53.535"/>
	<path fill="none" stroke="#F29C1F" stroke-width="4" stroke-miterlimit="10" d="M39.271,77.515l28.942,14.884l14.057-6.615V62.63
		l16.538-8.269"/>
	<path fill="#FFFFFF" d="M98.808,57.255c-1.596,0-2.894-1.298-2.894-2.894c0-1.597,1.298-2.895,2.894-2.895s2.895,1.298,2.895,2.895
		C101.702,55.958,100.404,57.255,98.808,57.255z"/>
	<path fill="#2980BA" d="M98.808,52.708c0.913,0,1.654,0.742,1.654,1.654s-0.741,1.653-1.654,1.653
		c-0.912,0-1.654-0.741-1.654-1.653S97.896,52.708,98.808,52.708 M98.808,50.227c-2.283,0-4.134,1.852-4.134,4.135
		c0,2.282,1.851,4.134,4.134,4.134s4.135-1.852,4.135-4.134C102.943,52.079,101.091,50.227,98.808,50.227z"/>
	<path fill="#FFFFFF" d="M39.271,80.409c-1.596,0-2.894-1.298-2.894-2.894s1.298-2.895,2.894-2.895s2.895,1.299,2.895,2.895
		S40.866,80.409,39.271,80.409z"/>
	<path fill="#2980BA" d="M39.271,75.861c0.913,0,1.654,0.741,1.654,1.654c0,0.912-0.741,1.653-1.654,1.653
		c-0.912,0-1.653-0.741-1.653-1.653C37.617,76.602,38.359,75.861,39.271,75.861 M39.271,73.38c-2.282,0-4.134,1.852-4.134,4.135
		s1.852,4.134,4.134,4.134c2.283,0,4.135-1.851,4.135-4.134S41.554,73.38,39.271,73.38z"/>
	<path opacity="0.15" fill="#2C3E50" enable-background="new    " d="M26.867,109.764L47.54,99.365V27.074L26.867,37.473V109.764z
		 M68.213,37.473v72.291l20.673-10.399V27.074L68.213,37.473z"/>
</g>
</svg>
